<mxfile host="Electron" modified="2024-05-26T11:16:49.853Z" agent="Mozilla/5.0 (Windows NT 10.0; Win64; x64) AppleWebKit/537.36 (KHTML, like Gecko) draw.io/22.1.18 Chrome/120.0.6099.199 Electron/28.1.2 Safari/537.36" etag="KTgdHck57bGyCacQ-WEL" version="22.1.18" type="device">
  <diagram name="第 1 页" id="Gq7o1vKtjF9IP8Fft1Qr">
    <mxGraphModel dx="407" dy="274" grid="1" gridSize="10" guides="1" tooltips="1" connect="1" arrows="1" fold="1" page="1" pageScale="1" pageWidth="827" pageHeight="1169" math="0" shadow="0">
      <root>
        <mxCell id="0" />
        <mxCell id="1" parent="0" />
        <mxCell id="_Yi5o2qNy02IV9oLK_B8-1" value="" style="endArrow=classic;html=1;rounded=0;" edge="1" parent="1">
          <mxGeometry width="50" height="50" relative="1" as="geometry">
            <mxPoint x="560" y="720" as="sourcePoint" />
            <mxPoint x="960" y="720" as="targetPoint" />
          </mxGeometry>
        </mxCell>
        <mxCell id="_Yi5o2qNy02IV9oLK_B8-2" value="" style="endArrow=classic;html=1;rounded=0;" edge="1" parent="1">
          <mxGeometry width="50" height="50" relative="1" as="geometry">
            <mxPoint x="600" y="760" as="sourcePoint" />
            <mxPoint x="600" y="440" as="targetPoint" />
          </mxGeometry>
        </mxCell>
        <mxCell id="_Yi5o2qNy02IV9oLK_B8-3" value="" style="endArrow=none;html=1;rounded=0;" edge="1" parent="1">
          <mxGeometry width="50" height="50" relative="1" as="geometry">
            <mxPoint x="920" y="680" as="sourcePoint" />
            <mxPoint x="640" y="480" as="targetPoint" />
          </mxGeometry>
        </mxCell>
        <mxCell id="_Yi5o2qNy02IV9oLK_B8-4" value="" style="endArrow=none;html=1;rounded=0;" edge="1" parent="1">
          <mxGeometry width="50" height="50" relative="1" as="geometry">
            <mxPoint x="760" y="720" as="sourcePoint" />
            <mxPoint x="760" y="480" as="targetPoint" />
          </mxGeometry>
        </mxCell>
        <mxCell id="_Yi5o2qNy02IV9oLK_B8-5" value="&lt;font style=&quot;font-size: 18px;&quot;&gt;&lt;font style=&quot;font-size: 18px;&quot;&gt;实际汇率，&lt;/font&gt;ε&lt;/font&gt;" style="text;html=1;align=center;verticalAlign=middle;resizable=0;points=[];autosize=1;strokeColor=none;fillColor=none;" vertex="1" parent="1">
          <mxGeometry x="480" y="443" width="120" height="40" as="geometry" />
        </mxCell>
        <mxCell id="_Yi5o2qNy02IV9oLK_B8-6" value="&lt;span style=&quot;font-size: 18px;&quot;&gt;净出口，NX&lt;/span&gt;" style="text;html=1;align=center;verticalAlign=middle;resizable=0;points=[];autosize=1;strokeColor=none;fillColor=none;" vertex="1" parent="1">
          <mxGeometry x="810" y="720" width="120" height="40" as="geometry" />
        </mxCell>
        <mxCell id="_Yi5o2qNy02IV9oLK_B8-7" value="&lt;font style=&quot;font-size: 18px;&quot;&gt;NX(ε)&lt;/font&gt;" style="text;html=1;align=center;verticalAlign=middle;resizable=0;points=[];autosize=1;strokeColor=none;fillColor=none;" vertex="1" parent="1">
          <mxGeometry x="885" y="670" width="70" height="40" as="geometry" />
        </mxCell>
        <mxCell id="_Yi5o2qNy02IV9oLK_B8-8" value="&lt;font style=&quot;font-size: 18px;&quot;&gt;CF&lt;/font&gt;" style="text;html=1;align=center;verticalAlign=middle;resizable=0;points=[];autosize=1;strokeColor=none;fillColor=none;" vertex="1" parent="1">
          <mxGeometry x="760" y="470" width="50" height="40" as="geometry" />
        </mxCell>
        <mxCell id="_Yi5o2qNy02IV9oLK_B8-9" value="" style="endArrow=none;dashed=1;html=1;rounded=0;" edge="1" parent="1">
          <mxGeometry width="50" height="50" relative="1" as="geometry">
            <mxPoint x="600" y="570" as="sourcePoint" />
            <mxPoint x="760" y="570" as="targetPoint" />
          </mxGeometry>
        </mxCell>
        <mxCell id="_Yi5o2qNy02IV9oLK_B8-11" value="" style="endArrow=classic;html=1;rounded=0;" edge="1" parent="1">
          <mxGeometry width="50" height="50" relative="1" as="geometry">
            <mxPoint x="80" y="360" as="sourcePoint" />
            <mxPoint x="480" y="360" as="targetPoint" />
          </mxGeometry>
        </mxCell>
        <mxCell id="_Yi5o2qNy02IV9oLK_B8-12" value="" style="endArrow=classic;html=1;rounded=0;" edge="1" parent="1">
          <mxGeometry width="50" height="50" relative="1" as="geometry">
            <mxPoint x="120" y="400" as="sourcePoint" />
            <mxPoint x="120" y="80" as="targetPoint" />
          </mxGeometry>
        </mxCell>
        <mxCell id="_Yi5o2qNy02IV9oLK_B8-13" value="" style="endArrow=none;html=1;rounded=0;" edge="1" parent="1">
          <mxGeometry width="50" height="50" relative="1" as="geometry">
            <mxPoint x="440" y="320" as="sourcePoint" />
            <mxPoint x="160" y="120" as="targetPoint" />
          </mxGeometry>
        </mxCell>
        <mxCell id="_Yi5o2qNy02IV9oLK_B8-14" value="" style="endArrow=none;html=1;rounded=0;" edge="1" parent="1">
          <mxGeometry width="50" height="50" relative="1" as="geometry">
            <mxPoint x="270" y="360" as="sourcePoint" />
            <mxPoint x="270" y="120" as="targetPoint" />
          </mxGeometry>
        </mxCell>
        <mxCell id="_Yi5o2qNy02IV9oLK_B8-15" value="&lt;font style=&quot;font-size: 18px;&quot;&gt;实际利率，r&lt;/font&gt;" style="text;html=1;align=center;verticalAlign=middle;resizable=0;points=[];autosize=1;strokeColor=none;fillColor=none;" vertex="1" parent="1">
          <mxGeometry y="83" width="120" height="40" as="geometry" />
        </mxCell>
        <mxCell id="_Yi5o2qNy02IV9oLK_B8-16" value="&lt;span style=&quot;font-size: 18px;&quot;&gt;可贷资金，S，I+CF&lt;/span&gt;" style="text;html=1;align=center;verticalAlign=middle;resizable=0;points=[];autosize=1;strokeColor=none;fillColor=none;" vertex="1" parent="1">
          <mxGeometry x="300" y="360" width="180" height="40" as="geometry" />
        </mxCell>
        <mxCell id="_Yi5o2qNy02IV9oLK_B8-17" value="&lt;font style=&quot;font-size: 18px;&quot;&gt;I(r) + CF(r)&lt;/font&gt;" style="text;html=1;align=center;verticalAlign=middle;resizable=0;points=[];autosize=1;strokeColor=none;fillColor=none;" vertex="1" parent="1">
          <mxGeometry x="385" y="310" width="110" height="40" as="geometry" />
        </mxCell>
        <mxCell id="_Yi5o2qNy02IV9oLK_B8-18" value="&lt;font style=&quot;font-size: 18px;&quot;&gt;S&lt;sub&gt;1&lt;/sub&gt;&lt;/font&gt;" style="text;html=1;align=center;verticalAlign=middle;resizable=0;points=[];autosize=1;strokeColor=none;fillColor=none;" vertex="1" parent="1">
          <mxGeometry x="250" y="83" width="40" height="40" as="geometry" />
        </mxCell>
        <mxCell id="_Yi5o2qNy02IV9oLK_B8-19" value="" style="endArrow=none;dashed=1;html=1;rounded=0;" edge="1" parent="1">
          <mxGeometry width="50" height="50" relative="1" as="geometry">
            <mxPoint x="120" y="200" as="sourcePoint" />
            <mxPoint x="760" y="200" as="targetPoint" />
          </mxGeometry>
        </mxCell>
        <mxCell id="_Yi5o2qNy02IV9oLK_B8-20" value="" style="endArrow=classic;html=1;rounded=0;" edge="1" parent="1">
          <mxGeometry width="50" height="50" relative="1" as="geometry">
            <mxPoint x="560" y="360" as="sourcePoint" />
            <mxPoint x="960" y="360" as="targetPoint" />
          </mxGeometry>
        </mxCell>
        <mxCell id="_Yi5o2qNy02IV9oLK_B8-21" value="" style="endArrow=classic;html=1;rounded=0;" edge="1" parent="1">
          <mxGeometry width="50" height="50" relative="1" as="geometry">
            <mxPoint x="600" y="400" as="sourcePoint" />
            <mxPoint x="600" y="80" as="targetPoint" />
          </mxGeometry>
        </mxCell>
        <mxCell id="_Yi5o2qNy02IV9oLK_B8-22" value="" style="endArrow=none;html=1;rounded=0;" edge="1" parent="1">
          <mxGeometry width="50" height="50" relative="1" as="geometry">
            <mxPoint x="930" y="323" as="sourcePoint" />
            <mxPoint x="650" y="123" as="targetPoint" />
          </mxGeometry>
        </mxCell>
        <mxCell id="_Yi5o2qNy02IV9oLK_B8-23" value="&lt;span style=&quot;font-size: 18px;&quot;&gt;资本净流出，CF&lt;/span&gt;" style="text;html=1;align=center;verticalAlign=middle;resizable=0;points=[];autosize=1;strokeColor=none;fillColor=none;" vertex="1" parent="1">
          <mxGeometry x="785" y="360" width="160" height="40" as="geometry" />
        </mxCell>
        <mxCell id="_Yi5o2qNy02IV9oLK_B8-24" value="&lt;font style=&quot;font-size: 18px;&quot;&gt;实际利率，r&lt;/font&gt;" style="text;html=1;align=center;verticalAlign=middle;resizable=0;points=[];autosize=1;strokeColor=none;fillColor=none;" vertex="1" parent="1">
          <mxGeometry x="480" y="83" width="120" height="40" as="geometry" />
        </mxCell>
        <mxCell id="_Yi5o2qNy02IV9oLK_B8-25" value="&lt;font style=&quot;font-size: 18px;&quot;&gt;CF(r)&lt;/font&gt;" style="text;html=1;align=center;verticalAlign=middle;resizable=0;points=[];autosize=1;strokeColor=none;fillColor=none;" vertex="1" parent="1">
          <mxGeometry x="860" y="310" width="70" height="40" as="geometry" />
        </mxCell>
        <mxCell id="_Yi5o2qNy02IV9oLK_B8-26" value="" style="endArrow=none;dashed=1;html=1;rounded=0;" edge="1" parent="1">
          <mxGeometry width="50" height="50" relative="1" as="geometry">
            <mxPoint x="760" y="480" as="sourcePoint" />
            <mxPoint x="760" y="200" as="targetPoint" />
          </mxGeometry>
        </mxCell>
        <mxCell id="_Yi5o2qNy02IV9oLK_B8-28" value="&lt;b&gt;(a) 可贷资金市场&lt;/b&gt;" style="text;html=1;align=center;verticalAlign=middle;resizable=0;points=[];autosize=1;strokeColor=none;fillColor=none;" vertex="1" parent="1">
          <mxGeometry x="215" y="410" width="110" height="30" as="geometry" />
        </mxCell>
        <mxCell id="_Yi5o2qNy02IV9oLK_B8-29" value="&lt;b&gt;(b) 资本净流出&lt;/b&gt;" style="text;html=1;align=center;verticalAlign=middle;resizable=0;points=[];autosize=1;strokeColor=none;fillColor=none;" vertex="1" parent="1">
          <mxGeometry x="560" y="410" width="100" height="30" as="geometry" />
        </mxCell>
        <mxCell id="_Yi5o2qNy02IV9oLK_B8-30" value="&lt;b&gt;(c) 外汇市场&lt;/b&gt;" style="text;html=1;align=center;verticalAlign=middle;resizable=0;points=[];autosize=1;strokeColor=none;fillColor=none;" vertex="1" parent="1">
          <mxGeometry x="715" y="770" width="90" height="30" as="geometry" />
        </mxCell>
        <mxCell id="_Yi5o2qNy02IV9oLK_B8-31" value="&lt;font style=&quot;font-size: 18px;&quot;&gt;S&lt;/font&gt;&lt;font style=&quot;font-size: 15px;&quot;&gt;&lt;sub&gt;2&lt;/sub&gt;&lt;/font&gt;" style="text;html=1;align=center;verticalAlign=middle;resizable=0;points=[];autosize=1;strokeColor=none;fillColor=none;" vertex="1" parent="1">
          <mxGeometry x="190" y="83" width="40" height="40" as="geometry" />
        </mxCell>
        <mxCell id="_Yi5o2qNy02IV9oLK_B8-32" value="" style="endArrow=none;html=1;rounded=0;" edge="1" parent="1">
          <mxGeometry width="50" height="50" relative="1" as="geometry">
            <mxPoint x="215" y="360" as="sourcePoint" />
            <mxPoint x="215" y="120" as="targetPoint" />
          </mxGeometry>
        </mxCell>
        <mxCell id="_Yi5o2qNy02IV9oLK_B8-33" value="" style="endArrow=none;dashed=1;html=1;rounded=0;" edge="1" parent="1">
          <mxGeometry width="50" height="50" relative="1" as="geometry">
            <mxPoint x="120" y="160" as="sourcePoint" />
            <mxPoint x="700" y="160" as="targetPoint" />
          </mxGeometry>
        </mxCell>
        <mxCell id="_Yi5o2qNy02IV9oLK_B8-35" value="" style="endArrow=none;dashed=1;html=1;rounded=0;" edge="1" parent="1">
          <mxGeometry width="50" height="50" relative="1" as="geometry">
            <mxPoint x="700" y="480" as="sourcePoint" />
            <mxPoint x="700" y="160" as="targetPoint" />
          </mxGeometry>
        </mxCell>
        <mxCell id="_Yi5o2qNy02IV9oLK_B8-36" value="" style="endArrow=none;html=1;rounded=0;" edge="1" parent="1">
          <mxGeometry width="50" height="50" relative="1" as="geometry">
            <mxPoint x="700" y="720" as="sourcePoint" />
            <mxPoint x="700" y="480" as="targetPoint" />
          </mxGeometry>
        </mxCell>
        <mxCell id="_Yi5o2qNy02IV9oLK_B8-37" value="" style="endArrow=none;dashed=1;html=1;rounded=0;" edge="1" parent="1">
          <mxGeometry width="50" height="50" relative="1" as="geometry">
            <mxPoint x="600" y="520" as="sourcePoint" />
            <mxPoint x="700" y="520" as="targetPoint" />
          </mxGeometry>
        </mxCell>
        <mxCell id="_Yi5o2qNy02IV9oLK_B8-38" value="" style="endArrow=classic;html=1;rounded=0;" edge="1" parent="1">
          <mxGeometry width="50" height="50" relative="1" as="geometry">
            <mxPoint x="260" y="140" as="sourcePoint" />
            <mxPoint x="220" y="140" as="targetPoint" />
          </mxGeometry>
        </mxCell>
        <mxCell id="_Yi5o2qNy02IV9oLK_B8-39" value="" style="endArrow=none;dashed=1;html=1;dashPattern=1 3;strokeWidth=2;rounded=0;" edge="1" parent="1">
          <mxGeometry width="50" height="50" relative="1" as="geometry">
            <mxPoint x="240" y="130" as="sourcePoint" />
            <mxPoint x="240" y="80" as="targetPoint" />
          </mxGeometry>
        </mxCell>
        <mxCell id="_Yi5o2qNy02IV9oLK_B8-40" value="1. 储蓄下降" style="text;html=1;align=center;verticalAlign=middle;resizable=0;points=[];autosize=1;strokeColor=none;fillColor=none;" vertex="1" parent="1">
          <mxGeometry x="200" y="50" width="80" height="30" as="geometry" />
        </mxCell>
        <mxCell id="_Yi5o2qNy02IV9oLK_B8-41" value="&lt;font style=&quot;font-size: 18px;&quot;&gt;r&lt;/font&gt;&lt;font style=&quot;font-size: 15px;&quot;&gt;&lt;sub&gt;2&lt;/sub&gt;&lt;/font&gt;" style="text;html=1;align=center;verticalAlign=middle;resizable=0;points=[];autosize=1;strokeColor=none;fillColor=none;" vertex="1" parent="1">
          <mxGeometry x="80" y="140" width="40" height="40" as="geometry" />
        </mxCell>
        <mxCell id="_Yi5o2qNy02IV9oLK_B8-42" value="&lt;font style=&quot;font-size: 18px;&quot;&gt;r&lt;sub&gt;1&lt;/sub&gt;&lt;/font&gt;" style="text;html=1;align=center;verticalAlign=middle;resizable=0;points=[];autosize=1;strokeColor=none;fillColor=none;" vertex="1" parent="1">
          <mxGeometry x="80" y="180" width="40" height="40" as="geometry" />
        </mxCell>
        <mxCell id="_Yi5o2qNy02IV9oLK_B8-43" value="" style="endArrow=classic;html=1;rounded=0;" edge="1" parent="1">
          <mxGeometry width="50" height="50" relative="1" as="geometry">
            <mxPoint x="70" y="190" as="sourcePoint" />
            <mxPoint x="70" y="160" as="targetPoint" />
          </mxGeometry>
        </mxCell>
        <mxCell id="_Yi5o2qNy02IV9oLK_B8-44" value="" style="endArrow=none;dashed=1;html=1;dashPattern=1 3;strokeWidth=2;rounded=0;" edge="1" parent="1">
          <mxGeometry width="50" height="50" relative="1" as="geometry">
            <mxPoint x="60" y="180" as="sourcePoint" />
            <mxPoint x="50" y="220" as="targetPoint" />
          </mxGeometry>
        </mxCell>
        <mxCell id="_Yi5o2qNy02IV9oLK_B8-45" value="2. 利率上升" style="text;html=1;align=center;verticalAlign=middle;resizable=0;points=[];autosize=1;strokeColor=none;fillColor=none;" vertex="1" parent="1">
          <mxGeometry x="10" y="218" width="80" height="30" as="geometry" />
        </mxCell>
        <mxCell id="_Yi5o2qNy02IV9oLK_B8-46" value="" style="endArrow=classic;html=1;rounded=0;" edge="1" parent="1">
          <mxGeometry width="50" height="50" relative="1" as="geometry">
            <mxPoint x="755" y="270" as="sourcePoint" />
            <mxPoint x="715" y="270" as="targetPoint" />
          </mxGeometry>
        </mxCell>
        <mxCell id="_Yi5o2qNy02IV9oLK_B8-47" value="" style="endArrow=none;dashed=1;html=1;dashPattern=1 3;strokeWidth=2;rounded=0;jumpStyle=none;" edge="1" parent="1">
          <mxGeometry width="50" height="50" relative="1" as="geometry">
            <mxPoint x="740" y="260" as="sourcePoint" />
            <mxPoint x="810" y="200" as="targetPoint" />
          </mxGeometry>
        </mxCell>
        <mxCell id="_Yi5o2qNy02IV9oLK_B8-48" value="3. 资本净流出减少" style="text;html=1;align=center;verticalAlign=middle;resizable=0;points=[];autosize=1;strokeColor=none;fillColor=none;" vertex="1" parent="1">
          <mxGeometry x="760" y="168" width="120" height="30" as="geometry" />
        </mxCell>
        <mxCell id="_Yi5o2qNy02IV9oLK_B8-49" value="&lt;font style=&quot;font-size: 18px;&quot;&gt;ε&lt;sub&gt;2&lt;/sub&gt;&lt;/font&gt;" style="text;html=1;align=center;verticalAlign=middle;resizable=0;points=[];autosize=1;strokeColor=none;fillColor=none;" vertex="1" parent="1">
          <mxGeometry x="560" y="500" width="40" height="40" as="geometry" />
        </mxCell>
        <mxCell id="_Yi5o2qNy02IV9oLK_B8-51" value="&lt;font style=&quot;font-size: 18px;&quot;&gt;ε&lt;/font&gt;&lt;font style=&quot;font-size: 15px;&quot;&gt;&lt;sub&gt;1&lt;/sub&gt;&lt;/font&gt;" style="text;html=1;align=center;verticalAlign=middle;resizable=0;points=[];autosize=1;strokeColor=none;fillColor=none;" vertex="1" parent="1">
          <mxGeometry x="560" y="545" width="40" height="40" as="geometry" />
        </mxCell>
        <mxCell id="_Yi5o2qNy02IV9oLK_B8-52" value="" style="endArrow=classic;html=1;rounded=0;" edge="1" parent="1">
          <mxGeometry width="50" height="50" relative="1" as="geometry">
            <mxPoint x="540" y="560" as="sourcePoint" />
            <mxPoint x="540" y="520" as="targetPoint" />
          </mxGeometry>
        </mxCell>
        <mxCell id="_Yi5o2qNy02IV9oLK_B8-53" value="" style="endArrow=none;dashed=1;html=1;dashPattern=1 3;strokeWidth=2;rounded=0;" edge="1" parent="1">
          <mxGeometry width="50" height="50" relative="1" as="geometry">
            <mxPoint x="530" y="550" as="sourcePoint" />
            <mxPoint x="500" y="570" as="targetPoint" />
          </mxGeometry>
        </mxCell>
        <mxCell id="_Yi5o2qNy02IV9oLK_B8-54" value="4. 汇率上升" style="text;html=1;align=center;verticalAlign=middle;resizable=0;points=[];autosize=1;strokeColor=none;fillColor=none;" vertex="1" parent="1">
          <mxGeometry x="440" y="568" width="80" height="30" as="geometry" />
        </mxCell>
        <mxCell id="_Yi5o2qNy02IV9oLK_B8-55" value="" style="endArrow=classic;html=1;rounded=0;" edge="1" parent="1">
          <mxGeometry width="50" height="50" relative="1" as="geometry">
            <mxPoint x="750" y="660" as="sourcePoint" />
            <mxPoint x="710" y="660" as="targetPoint" />
          </mxGeometry>
        </mxCell>
        <mxCell id="_Yi5o2qNy02IV9oLK_B8-57" value="" style="endArrow=none;dashed=1;html=1;dashPattern=1 3;strokeWidth=2;rounded=0;" edge="1" parent="1">
          <mxGeometry width="50" height="50" relative="1" as="geometry">
            <mxPoint x="730" y="648" as="sourcePoint" />
            <mxPoint x="830" y="560" as="targetPoint" />
          </mxGeometry>
        </mxCell>
        <mxCell id="_Yi5o2qNy02IV9oLK_B8-58" value="5. 净出口下降" style="text;html=1;align=center;verticalAlign=middle;resizable=0;points=[];autosize=1;strokeColor=none;fillColor=none;" vertex="1" parent="1">
          <mxGeometry x="785" y="530" width="100" height="30" as="geometry" />
        </mxCell>
      </root>
    </mxGraphModel>
  </diagram>
</mxfile>
